Normalized EMG Linear Envelopes
nRows=262
nColumns=4

endheader
time	 med_gas_r	  soleus_r	 tib_ant_r	
2.0291	  0.062195	  0.086916	  0.016935	
2.06237	  0.062484	  0.093815	  0.015357	
2.09563	  0.062969	  0.099382	  0.013865	
2.1289	  0.063726	  0.102585	  0.012559	
2.16216	  0.064748	  0.103072	  0.011541	
2.19542	  0.065952	  0.101312	  0.010867	
2.22869	  0.067204	  0.098331	  0.010520	
2.26195	  0.068346	  0.095207	  0.010429	
2.29522	  0.069194	  0.092672	  0.010504	
2.32848	  0.069547	  0.091037	  0.010664	
2.36174	  0.069230	  0.090301	  0.010840	
2.39501	  0.068195	  0.090280	  0.010986	
2.42827	  0.066585	  0.090700	  0.011074	
2.46154	  0.064718	  0.091309	  0.011096	
2.4948	  0.062965	  0.091979	  0.011062	
2.52806	  0.061637	  0.092694	  0.010983	
2.56133	  0.060948	  0.093431	  0.010867	
2.59459	  0.061034	  0.094056	  0.010730	
2.62786	  0.061939	  0.094366	  0.010595	
2.66112	  0.063560	  0.094245	  0.010492	
2.69438	  0.065632	  0.093755	  0.010446	
2.72765	  0.067841	  0.093092	  0.010470	
2.76091	  0.069995	  0.092456	  0.010562	
2.79418	  0.072100	  0.091970	  0.010706	
2.82744	  0.074234	  0.091665	  0.010878	
2.8607	  0.076309	  0.091513	  0.011037	
2.89397	  0.077955	  0.091476	  0.011135	
2.92723	  0.078662	  0.091558	  0.011133	
2.9605	  0.078097	  0.091823	  0.011024	
2.99376	  0.076343	  0.092337	  0.010841	
3.02702	  0.073843	  0.093083	  0.010646	
3.06029	  0.071122	  0.093940	  0.010500	
3.09355	  0.068536	  0.094756	  0.010439	
3.12682	  0.066229	  0.095442	  0.010463	
3.16008	  0.064277	  0.095961	  0.010538	
3.19334	  0.062830	  0.096239	  0.010616	
3.22661	  0.062092	  0.096105	  0.010653	
3.25987	  0.062147	  0.095374	  0.010630	
3.29314	  0.062785	  0.093990	  0.010556	
3.3264	  0.063513	  0.092089	  0.010468	
3.35966	  0.063774	  0.089924	  0.010404	
3.39293	  0.063267	  0.087729	  0.010389	
3.42619	  0.062091	  0.085682	  0.010423	
3.45946	  0.060631	  0.083971	  0.010490	
3.49272	  0.059281	  0.082841	  0.010570	
3.52598	  0.058255	  0.082542	  0.010645	
3.55925	  0.057618	  0.083187	  0.010708	
3.59251	  0.057429	  0.084660	  0.010758	
3.62578	  0.057777	  0.086632	  0.010799	
3.65904	  0.058673	  0.088692	  0.010835	
3.6923	  0.059938	  0.090473	  0.010861	
3.72557	  0.061247	  0.091727	  0.010867	
3.75883	  0.062321	  0.092338	  0.010845	
3.7921	  0.063052	  0.092318	  0.010797	
3.82536	  0.063490	  0.091824	  0.010740	
3.85862	  0.063734	  0.091147	  0.010700	
3.89189	  0.063864	  0.090625	  0.010694	
3.92515	  0.063948	  0.090538	  0.010727	
3.95842	  0.064041	  0.091038	  0.010792	
3.99168	  0.064138	  0.092156	  0.010866	
4.02494	  0.064133	  0.093818	  0.010930	
4.05821	  0.063855	  0.095810	  0.010969	
4.09147	  0.063187	  0.097749	  0.010981	
4.12474	  0.062182	  0.099166	  0.010978	
4.158	  0.061075	  0.099723	  0.010976	
4.19126	  0.060170	  0.099413	  0.010984	
4.22453	  0.059678	  0.098558	  0.010998	
4.25779	  0.059622	  0.097607	  0.011009	
4.29106	  0.059884	  0.096907	  0.011017	
4.32432	  0.060332	  0.096601	  0.011033	
4.35758	  0.060905	  0.096650	  0.011067	
4.39085	  0.061584	  0.096879	  0.011127	
4.42411	  0.062336	  0.097022	  0.011224	
4.45738	  0.063105	  0.096802	  0.011380	
4.49064	  0.063877	  0.096034	  0.011625	
4.5239	  0.064713	  0.094683	  0.011972	
4.55717	  0.065704	  0.092840	  0.012398	
4.59043	  0.066906	  0.090691	  0.012844	
4.6237	  0.068337	  0.088534	  0.013243	
4.65696	  0.070050	  0.086847	  0.013537	
4.69022	  0.072184	  0.086284	  0.013688	
4.72349	  0.074907	  0.087512	  0.013680	
4.75675	  0.078242	  0.090937	  0.013546	
4.79002	  0.081930	  0.096506	  0.013380	
4.82328	  0.085482	  0.103771	  0.013315	
4.85654	  0.088462	  0.112154	  0.013465	
4.88981	  0.090787	  0.121169	  0.013874	
4.92307	  0.092765	  0.130380	  0.014526	
4.95634	  0.094821	  0.139254	  0.015398	
4.9896	  0.097187	  0.147208	  0.016500	
5.02286	  0.099830	  0.153957	  0.017857	
5.05613	  0.102616	  0.159761	  0.019455	
5.08939	  0.105477	  0.165175	  0.021223	
5.12266	  0.108410	  0.170417	  0.023096	
5.15592	  0.111356	  0.174980	  0.025121	
5.18918	  0.114077	  0.177973	  0.027452	
5.22245	  0.116129	  0.178916	  0.030184	
5.25571	  0.116968	  0.178207	  0.033107	
5.28898	  0.116222	  0.176817	  0.035650	
5.32224	  0.113992	  0.175601	  0.037136	
5.3555	  0.110941	  0.174948	  0.037224	
5.38877	  0.108029	  0.175028	  0.036175	
5.42203	  0.106032	  0.176091	  0.034738	
5.4553	  0.105192	  0.178302	  0.033749	
5.48856	  0.105281	  0.181261	  0.033745	
5.52182	  0.106016	  0.183899	  0.034792	
5.55509	  0.107436	  0.185068	  0.036569	
5.58835	  0.109894	  0.184360	  0.038602	
5.62162	  0.113684	  0.182403	  0.040548	
5.65488	  0.118634	  0.180411	  0.042340	
5.68814	  0.124013	  0.179464	  0.044102	
5.72141	  0.128820	  0.180101	  0.045949	
5.75467	  0.132299	  0.182345	  0.047915	
5.78794	  0.134327	  0.185875	  0.050046	
5.8212	  0.135388	  0.190132	  0.052477	
5.85446	  0.136166	  0.194436	  0.055332	
5.88773	  0.137095	  0.198265	  0.058590	
5.92099	  0.138211	  0.201511	  0.062133	
5.95426	  0.139354	  0.204425	  0.065959	
5.98752	  0.140437	  0.207288	  0.070246	
6.02078	  0.141464	  0.210231	  0.075168	
6.05405	  0.142308	  0.213454	  0.080685	
6.08731	  0.142565	  0.217538	  0.086585	
6.12058	  0.141720	  0.223272	  0.092660	
6.15384	  0.139507	  0.230907	  0.098767	
6.1871	  0.136142	  0.239545	  0.104691	
6.22037	  0.132285	  0.247412	  0.110125	
6.25363	  0.128772	  0.252945	  0.114927	
6.2869	  0.126262	  0.255771	  0.119469	
6.32016	  0.124982	  0.256723	  0.124612	
6.35342	  0.124760	  0.256994	  0.131199	
6.38669	  0.125319	  0.257279	  0.139449	
6.41995	  0.126599	  0.257602	  0.148746	
6.45322	  0.128804	  0.257818	  0.157901	
6.48648	  0.132179	  0.258207	  0.165562	
6.51974	  0.136695	  0.259616	  0.170520	
6.55301	  0.141911	  0.262999	  0.171997	
6.58627	  0.147039	  0.268724	  0.170040	
6.61954	  0.151197	  0.276223	  0.165808	
6.6528	  0.153714	  0.284238	  0.161376	
6.68606	  0.154334	  0.291430	  0.158972	
6.71933	  0.153179	  0.296893	  0.160022	
6.75259	  0.150556	  0.300354	  0.164538	
6.78586	  0.146840	  0.302147	  0.171213	
6.81912	  0.142578	  0.303092	  0.178158	
6.85238	  0.138601	  0.304205	  0.183814	
6.88565	  0.135878	  0.306210	  0.187501	
6.91891	  0.135149	  0.309126	  0.189396	
6.95218	  0.136640	  0.312326	  0.190163	
6.98544	  0.140069	  0.315135	  0.190526	
7.0187	  0.144872	  0.317424	  0.190947	
7.05197	  0.150402	  0.319616	  0.191481	
7.08523	  0.155957	  0.322019	  0.191896	
7.1185	  0.160767	  0.324114	  0.191991	
7.15176	  0.164166	  0.324573	  0.191881	
7.18502	  0.165886	  0.322220	  0.191970	
7.21829	  0.166175	  0.317204	  0.192623	
7.25155	  0.165560	  0.311304	  0.193841	
7.28482	  0.164429	  0.306983	  0.195215	
7.31808	  0.162834	  0.305966	  0.196139	
7.35134	  0.160705	  0.308497	  0.196065	
7.38461	  0.158206	  0.313651	  0.194648	
7.41787	  0.155813	  0.320114	  0.191869	
7.45114	  0.153964	  0.326617	  0.188158	
7.4844	  0.152632	  0.331973	  0.184302	
7.51766	  0.151273	  0.335242	  0.181044	
7.55093	  0.149280	  0.336262	  0.178629	
7.58419	  0.146585	  0.336002	  0.176724	
7.61746	  0.143849	  0.336130	  0.174794	
7.65072	  0.142041	  0.338017	  0.172618	
7.68398	  0.141805	  0.342089	  0.170521	
7.71725	  0.143191	  0.348042	  0.169192	
7.75051	  0.145872	  0.355417	  0.169252	
7.78378	  0.149441	  0.363725	  0.170854	
7.81704	  0.153401	  0.372108	  0.173597	
7.8503	  0.157015	  0.379262	  0.176771	
7.88357	  0.159430	  0.384057	  0.179814	
7.91683	  0.160152	  0.386318	  0.182654	
7.9501	  0.159387	  0.386941	  0.185676	
7.98336	  0.157852	  0.387186	  0.189353	
8.01662	  0.156215	  0.387750	  0.193919	
8.04989	  0.154792	  0.388314	  0.199311	
8.08315	  0.153740	  0.387755	  0.205324	
8.11642	  0.153390	  0.384850	  0.211705	
8.14968	  0.154210	  0.379156	  0.218203	
8.18294	  0.156416	  0.371612	  0.224687	
8.21621	  0.159719	  0.364384	  0.231300	
8.24947	  0.163516	  0.359888	  0.238425	
8.28274	  0.167310	  0.359549	  0.246395	
8.316	  0.170878	  0.363213	  0.255162	
8.34926	  0.174059	  0.369599	  0.264250	
8.38253	  0.176487	  0.377275	  0.273019	
8.41579	  0.177659	  0.385252	  0.280978	
8.44906	  0.177300	  0.392833	  0.287899	
8.48232	  0.175686	  0.399289	  0.293752	
8.51558	  0.173610	  0.404074	  0.298636	
8.54885	  0.172034	  0.407499	  0.302788	
8.58211	  0.171648	  0.411018	  0.306595	
8.61538	  0.172537	  0.416487	  0.310525	
8.64864	  0.174093	  0.424813	  0.315024	
8.6819	  0.175316	  0.435018	  0.320520	
8.71517	  0.175465	  0.444498	  0.327578	
8.74843	  0.174664	  0.450346	  0.337015	
8.7817	  0.173920	  0.450923	  0.349700	
8.81496	  0.174440	  0.446715	  0.366016	
8.84822	  0.176768	  0.439980	  0.385324	
8.88149	  0.180463	  0.433458	  0.405894	
8.91475	  0.184526	  0.428965	  0.425366	
8.94802	  0.188083	  0.426725	  0.441364	
8.98128	  0.190672	  0.425734	  0.451886	
9.01454	  0.192056	  0.424728	  0.455560	
9.04781	  0.191973	  0.422957	  0.451998	
9.08107	  0.190239	  0.420300	  0.442083	
9.11434	  0.187078	  0.416904	  0.427709	
9.1476	  0.183197	  0.412915	  0.410903	
9.18086	  0.179416	  0.408626	  0.393078	
9.21413	  0.176214	  0.404742	  0.375137	
9.24739	  0.173633	  0.402302	  0.358219	
9.28066	  0.171612	  0.402118	  0.344068	
9.31392	  0.170302	  0.404202	  0.334432	
9.34718	  0.170024	  0.407677	  0.329994	
9.38045	  0.170976	  0.411238	  0.329849	
9.41371	  0.173083	  0.413771	  0.331953	
9.44698	  0.176153	  0.414814	  0.334168	
9.48024	  0.180024	  0.414738	  0.335169	
9.5135	  0.184376	  0.414616	  0.334819	
9.54677	  0.188394	  0.415690	  0.334004	
9.58003	  0.190857	  0.418594	  0.334152	
9.6133	  0.190847	  0.422856	  0.336665	
9.64656	  0.188480	  0.427089	  0.342377	
9.67982	  0.184829	  0.429721	  0.351045	
9.71309	  0.181048	  0.429670	  0.361082	
9.74635	  0.177557	  0.426560	  0.369941	
9.77962	  0.174060	  0.420652	  0.375217	
9.81288	  0.170202	  0.412772	  0.375801	
9.84614	  0.166020	  0.404261	  0.372100	
9.87941	  0.161768	  0.396692	  0.365231	
9.91267	  0.157544	  0.391296	  0.356207	
9.94594	  0.153281	  0.388425	  0.346019	
9.9792	  0.149049	  0.387422	  0.336181	
10.0125	  0.145122	  0.386996	  0.328541	
10.0457	  0.141607	  0.385827	  0.324079	
10.079	  0.138108	  0.383078	  0.321833	
10.1123	  0.133940	  0.378644	  0.319322	
10.1455	  0.128738	  0.373101	  0.314379	
10.1788	  0.122787	  0.367398	  0.306836	
10.212	  0.116711	  0.362436	  0.298549	
10.2453	  0.110918	  0.358665	  0.291832	
10.2786	  0.105440	  0.355780	  0.287728	
10.3118	  0.100240	  0.352609	  0.285497	
10.3451	  0.095531	  0.347441	  0.283436	
10.3784	  0.091711	  0.338922	  0.280150	
10.4116	  0.089093	  0.327078	  0.275338	
10.4449	  0.087781	  0.313692	  0.269758	
10.4782	  0.087769	  0.301593	  0.264584	
10.5114	  0.089001	  0.293182	  0.260660	
10.5447	  0.091251	  0.289147	  0.258079	
10.578	  0.094023	  0.288279	  0.256275	
10.6112	  0.096715	  0.288560	  0.254416	
10.6445	  0.098959	  0.288568	  0.251764	
10.6777	  0.100757	  0.287951	  0.247838	
10.711	  0.102216	  0.286782	  0.242486	
